# xmcd CD database file
#
# Track frame offsets:
#	150
#	10627
#	35611
#	47180
#	64877
#	75551
#	88578
#	114468
#	132785
#	149465
#	163144
#	184846
#	189781
#	214410
#	229392
#	245884
#	274671
#	290003
#
# Disc length: 4146 seconds
#
# Revision: 2
# Processed by: cddbd v1.4PL0 Copyright (c) Steve Scherf et al.
# Submitted via: CDex 1.50
#
DISCID=0d103012
DTITLE=Louis Armstrong - Hello Dolly (Master Collection)
DYEAR=2000
DGENRE=Jazz
TTITLE0=What a wonderful world
TTITLE1=Sweethearts on parade (with Frank Sinatra)
TTITLE2=Hello Dolly
TTITLE3=Cabaret
TTITLE4=Pretty little missy
TTITLE5=I can't give you anythin but love
TTITLE6=Basin Street blues
TTITLE7=Ain't misbehavin'
TTITLE8=On the sunny side of the street
TTITLE9=Snake rag
TTITLE10=Tea for two
TTITLE11=When you're smiling
TTITLE12=Big butter and egg man
TTITLE13=Dinah
TTITLE14=What did I do to be so black and blue
TTITLE15=How high the moon
TTITLE16=Please don't talk about me when I'm gone
TTITLE17=That's my desire
EXTD=YEAR: 2000
EXTT0=
EXTT1=
EXTT2=
EXTT3=
EXTT4=
EXTT5=
EXTT6=
EXTT7=
EXTT8=
EXTT9=
EXTT10=
EXTT11=
EXTT12=
EXTT13=
EXTT14=
EXTT15=
EXTT16=
EXTT17=
PLAYORDER=
